<svg width="32" height="32" viewBox="0 0 32 32" fill="none" xmlns="http://www.w3.org/2000/svg">
<g clip-path="url(#clip0_1_17)">
<g clip-path="url(#clip1_1_17)">
<rect width="32" height="32" fill="white"/>
<g clip-path="url(#clip2_1_17)">
<mask id="mask0_1_17" style="mask-type:luminance" maskUnits="userSpaceOnUse" x="0" y="0" width="32" height="32">
<path d="M31.9717 0H0V32H31.9717V0Z" fill="white"/>
</mask>
<g mask="url(#mask0_1_17)">
<path d="M13.8034 31.4421L10.541 29.7472V24.0961L15.9859 26.801L21.4306 24.0961V29.7472L18.1683 31.4421C17.5049 31.7873 16.7521 31.969 15.9859 31.9688C15.2196 31.969 14.4668 31.7873 13.8034 31.4421ZM27.7375 10.644C27.7376 10.4954 27.6942 10.3494 27.6116 10.2206C27.529 10.0919 27.4103 9.98501 27.2671 9.91072C27.1241 9.83642 26.9619 9.79734 26.7967 9.79741C26.6316 9.79747 26.4693 9.83667 26.3263 9.91108L15.9938 15.1579L5.64496 9.91121C5.50198 9.83684 5.33977 9.79767 5.17464 9.79762C5.0095 9.79757 4.84726 9.83666 4.70424 9.91095C4.56121 9.98523 4.44244 10.0921 4.35986 10.2208C4.27728 10.3495 4.23382 10.4955 4.23382 10.6441V26.4704L2.21694 25.4225C1.5537 25.0775 1.00293 24.5816 0.619899 23.9846C0.236867 23.3875 0.0350385 22.7103 0.034668 22.0209V9.97913C0.035025 9.28965 0.236866 8.61237 0.619937 8.01528C1.00301 7.41818 1.55384 6.92225 2.21714 6.57728L13.8035 0.557786C14.4668 0.212735 15.2196 0.0310669 15.9859 0.0310669C16.7521 0.0310669 17.5049 0.212735 18.1683 0.557786L29.7547 6.57728C30.418 6.92218 30.969 7.4181 31.352 8.01521C31.7351 8.61233 31.9369 9.28964 31.9371 9.97913V22.0209C31.9367 22.7103 31.7349 23.3875 31.3518 23.9846C30.9687 24.5816 30.4177 25.0775 29.7544 25.4222L27.7375 26.4702V10.644Z" fill="#44C9F6"/>
</g>
</g>
</g>
</g>
<defs>
<clipPath id="clip0_1_17">
<rect width="32" height="32" fill="white"/>
</clipPath>
<clipPath id="clip1_1_17">
<rect width="32" height="32" fill="white"/>
</clipPath>
<clipPath id="clip2_1_17">
<rect width="32" height="32" fill="white"/>
</clipPath>
</defs>
</svg>
